<?xml version="1.0" standalone="no"?>
<!DOCTYPE svg PUBLIC "-//W3C//DTD SVG 20010904//EN"
 "http://www.w3.org/TR/2001/REC-SVG-20010904/DTD/svg10.dtd">
<svg version="1.0" xmlns="http://www.w3.org/2000/svg"
 width="360.000000pt" height="248.000000pt" viewBox="0 0 360.000000 248.000000"
 preserveAspectRatio="xMidYMid meet">

<g transform="translate(0.000000,248.000000) scale(0.100000,-0.100000)"
fill="#000000" stroke="none">
<path d="M2265 2160 c-38 -4 -196 -20 -350 -34 -996 -95 -1275 -122 -1279
-127 -3 -3 10 -118 29 -255 19 -137 59 -436 90 -664 31 -228 62 -438 70 -465
19 -67 62 -109 111 -108 49 1 84 29 114 89 l25 49 3 643 3 642 909 0 910 0 0
-560 c0 -537 -1 -562 -20 -599 -22 -43 -70 -88 -103 -96 -24 -6 -439 -65
-1271 -181 -570 -79 -568 -79 -633 -38 -13 8 -23 12 -23 8 0 -15 58 -84 88
-104 31 -22 36 -23 120 -11 102 14 862 120 1372 191 195 28 375 57 399 66 55
21 106 66 134 118 22 41 22 45 25 669 l3 627 -274 0 -274 0 -7 61 c-4 33 -10
67 -13 75 -6 15 -41 16 -158 4z"/>
<path d="M2484 1764 c-48 -24 -70 -95 -44 -145 12 -21 68 -52 115 -63 44 -11
75 -34 75 -56 0 -30 -28 -50 -69 -50 -38 0 -61 17 -74 53 -4 11 -17 17 -37 17
-25 0 -30 -4 -30 -24 0 -12 10 -38 23 -57 44 -66 157 -76 220 -19 29 26 32 34
32 85 0 49 -4 60 -27 80 -16 13 -55 31 -87 41 -33 9 -68 25 -77 35 -16 18 -16
20 1 39 10 11 30 20 44 20 32 0 71 -26 71 -47 0 -12 7 -14 32 -9 42 8 43 10
28 47 -26 63 -124 89 -196 53z"/>
<path d="M1280 1580 l0 -190 30 0 29 0 3 127 3 128 70 -128 70 -127 38 0 37 0
0 190 0 190 -35 0 -34 0 -3 -121 -3 -122 -68 122 c-67 118 -69 121 -103 121
l-34 0 0 -190z"/>
<path d="M1640 1580 l0 -190 130 0 130 0 0 30 0 30 -100 0 -100 0 0 55 0 55
90 0 90 0 0 30 0 29 -87 3 -88 3 -3 42 -3 42 98 3 98 3 3 28 3 27 -130 0 -131
0 0 -190z"/>
<path d="M1945 1713 c8 -32 27 -118 42 -190 l28 -133 37 0 c42 0 36 -13 79
165 12 50 25 94 29 98 4 5 23 -53 41 -127 l33 -136 38 0 c21 0 38 2 38 5 0 3
18 86 40 185 22 99 40 182 40 185 0 3 -15 5 -34 5 l-34 0 -24 -125 c-12 -69
-26 -125 -29 -125 -3 0 -18 56 -34 125 l-28 125 -42 0 -43 0 -27 -112 c-15
-62 -31 -119 -35 -127 -4 -7 -18 42 -31 110 l-25 124 -36 3 -36 3 13 -58z"/>
<path d="M1280 1200 l0 -30 388 0 387 0 0 30 0 30 -387 0 -388 0 0 -30z"/>
<path d="M2170 1005 l0 -225 290 0 290 0 0 225 0 225 -290 0 -290 0 0 -225z"/>
<path d="M1280 1010 l0 -30 384 0 384 0 4 30 5 30 -389 0 -388 0 0 -30z"/>
<path d="M1280 813 l0 -33 385 0 385 0 0 25 c0 14 0 28 0 32 0 3 -173 7 -385
7 l-385 1 0 -32z"/>
</g>
</svg>
